<?xml version="1.0" encoding="iso-8859-1"?>
<!-- Uploaded to: SVG Repo, www.svgrepo.com, Generator: SVG Repo Mixer Tools -->
<svg fill="#EDDBC0" height="800px" width="800px" version="1.1" id="Layer_1" xmlns="http://www.w3.org/2000/svg" xmlns:xlink="http://www.w3.org/1999/xlink" 
	 viewBox="0 0 201.002 201.002" xml:space="preserve">
<g>
	<g>
		<g>
			<path d="M173.747,107.151h26.517v-7.39h-23.289c0.68-2.404,1.12-4.86,1.12-7.39c0-2.04-1.655-3.695-3.695-3.695H26.602
				c-2.04,0-3.695,1.655-3.695,3.695c0,2.53,0.44,4.986,1.12,7.39H0.738v7.39h26.231v-0.454c7.258,12.523,23.83,22.375,45.279,27.04
				l-47.123,62.832l5.912,4.433l48.772-65.031l-1.393-1.045c6.981,1.145,14.374,1.784,22.085,1.784s15.103-0.64,22.085-1.784
				l-1.393,1.045l48.772,65.031l5.912-4.433l-47.123-62.833C149.94,129.129,166.352,119.455,173.747,107.151z M100.501,129.32
				c-35.69,0-66.186-14.882-69.837-33.254h139.674C166.686,114.438,136.191,129.32,100.501,129.32z"/>
			<path d="M79.022,63.728c-1.727,1.088-2.246,3.368-1.158,5.095c0.702,1.117,1.903,1.727,3.13,1.727
				c0.673,0,1.353-0.184,1.965-0.568c0.648-0.408,15.703-10.282,2.64-36.298c-3.527-7.024-4.451-13.125-2.744-18.135
				c1.999-5.876,7.123-8.445,7.263-8.514c1.835-0.866,2.63-3.053,1.775-4.897c-0.859-1.853-3.058-2.649-4.907-1.797
				c-0.325,0.151-7.976,3.787-11.074,12.671c-2.438,6.991-1.4,15.061,3.083,23.988C88.905,56.735,79.383,63.483,79.022,63.728z"/>
			<path d="M97.497,63.728c-1.727,1.088-2.246,3.368-1.158,5.095c0.702,1.117,1.903,1.727,3.13,1.727
				c0.673,0,1.353-0.184,1.965-0.568c0.648-0.408,15.703-10.282,2.64-36.298c-3.527-7.024-4.451-13.125-2.744-18.135
				c1.999-5.876,7.123-8.445,7.263-8.514c1.835-0.866,2.63-3.053,1.775-4.897c-0.861-1.853-3.06-2.649-4.907-1.797
				c-0.325,0.151-7.976,3.787-11.074,12.671c-2.438,6.991-1.4,15.061,3.083,23.988C107.38,56.735,97.858,63.483,97.497,63.728z"/>
			<path d="M115.971,63.728c-1.727,1.088-2.246,3.368-1.158,5.095c0.702,1.117,1.903,1.727,3.13,1.727
				c0.673,0,1.353-0.184,1.965-0.568c0.648-0.408,15.703-10.282,2.64-36.298c-3.527-7.024-4.451-13.125-2.744-18.135
				c1.999-5.876,7.123-8.445,7.263-8.514c1.835-0.866,2.63-3.053,1.775-4.897c-0.861-1.853-3.06-2.649-4.907-1.797
				c-0.325,0.151-7.976,3.787-11.074,12.671c-2.438,6.991-1.4,15.061,3.083,23.988C125.854,56.735,116.332,63.483,115.971,63.728z"
				/>
		</g>
	</g>
</g>
</svg>